<?xml version="1.0" encoding="utf-8"?>
<!-- Generator: Adobe Illustrator 16.0.0, SVG Export Plug-In . SVG Version: 6.00 Build 0)  -->
<!DOCTYPE svg PUBLIC "-//W3C//DTD SVG 1.1//EN" "http://www.w3.org/Graphics/SVG/1.1/DTD/svg11.dtd">
<svg version="1.1" id="Ebene_1" xmlns="http://www.w3.org/2000/svg" xmlns:xlink="http://www.w3.org/1999/xlink" x="0px" y="0px"
	 width="24px" height="24px" viewBox="0 0 24 24" enable-background="new 0 0 24 24" xml:space="preserve">
<path fill="#818181" d="M12,11.226c1.505,0,2.793-0.548,3.855-1.645c1.067-1.096,1.6-2.418,1.6-3.969c0-1.548-0.532-2.871-1.6-3.967
	C14.793,0.548,13.505,0,12,0c-1.506,0-2.792,0.548-3.857,1.645C7.078,2.741,6.545,4.064,6.545,5.612c0,1.55,0.533,2.873,1.598,3.969
	C9.209,10.678,10.494,11.226,12,11.226z M21.949,18.702c-0.031-0.493-0.097-1.024-0.197-1.594c-0.1-0.569-0.226-1.098-0.377-1.587
	c-0.151-0.485-0.354-0.961-0.611-1.425c-0.256-0.462-0.549-0.856-0.881-1.183c-0.331-0.327-0.736-0.587-1.215-0.782
	c-0.477-0.195-1.006-0.292-1.582-0.292c-0.086,0-0.285,0.104-0.598,0.314c-0.312,0.209-0.666,0.442-1.058,0.701
	c-0.395,0.26-0.903,0.494-1.533,0.702c-0.631,0.209-1.263,0.314-1.897,0.314s-1.267-0.105-1.896-0.314
	c-0.629-0.208-1.143-0.442-1.534-0.702c-0.394-0.259-0.745-0.491-1.058-0.701C7.199,11.944,7,11.84,6.915,11.84
	c-0.579,0-1.107,0.097-1.584,0.292c-0.479,0.194-0.883,0.455-1.215,0.782c-0.331,0.326-0.625,0.721-0.88,1.183
	c-0.255,0.464-0.459,0.939-0.611,1.425c-0.151,0.489-0.277,1.018-0.376,1.587c-0.099,0.569-0.165,1.101-0.198,1.594
	C2.017,19.194,2,19.697,2,20.214c0,1.169,0.346,2.094,1.037,2.771C3.728,23.661,4.647,24,5.792,24h12.416
	c1.146,0,2.063-0.339,2.756-1.015C21.655,22.308,22,21.383,22,20.214C22,19.697,21.983,19.194,21.949,18.702z"/>
</svg>
