<?xml version="1.0" encoding="utf-8"?>
<!-- Generator: Adobe Illustrator 16.0.0, SVG Export Plug-In . SVG Version: 6.00 Build 0)  -->
<!DOCTYPE svg PUBLIC "-//W3C//DTD SVG 1.1//EN" "http://www.w3.org/Graphics/SVG/1.1/DTD/svg11.dtd">
<svg version="1.1" id="Ebene_1" xmlns="http://www.w3.org/2000/svg" xmlns:xlink="http://www.w3.org/1999/xlink" x="0px" y="0px"
	 width="18px" height="18px" viewBox="0 0 18 18" enable-background="new 0 0 18 18" xml:space="preserve">
<path fill="#FFFFFF" d="M18,8.992c0-0.019-0.012-0.035-0.014-0.054c-0.008-0.308-0.134-0.634-0.395-0.895l-6.994-6.994
	c-0.477-0.477-1.18-0.545-1.569-0.155C8.638,1.284,8.707,1.986,9.184,2.463l5.529,5.529H1.22c-0.674,0-1.22,0.448-1.22,1
	s0.546,1,1.22,1h13.509l-5.546,5.545c-0.477,0.477-0.545,1.18-0.155,1.57c0.391,0.391,1.094,0.32,1.57-0.156l6.993-6.993
	c0.265-0.265,0.39-0.595,0.395-0.906C17.987,9.03,18,9.013,18,8.992z"/>
</svg>
