<?xml version="1.0" encoding="utf-8"?>
<!-- Generator: Adobe Illustrator 16.0.0, SVG Export Plug-In . SVG Version: 6.00 Build 0)  -->
<!DOCTYPE svg PUBLIC "-//W3C//DTD SVG 1.1//EN" "http://www.w3.org/Graphics/SVG/1.1/DTD/svg11.dtd">
<svg version="1.1" id="Ebene_1" xmlns="http://www.w3.org/2000/svg" xmlns:xlink="http://www.w3.org/1999/xlink" x="0px" y="0px"
	 width="24px" height="24px" viewBox="0 0 24 24" enable-background="new 0 0 24 24" xml:space="preserve">
<path fill="#818181" d="M7.2,19.203c-1.319,0-2.403,1.074-2.403,2.393C4.797,22.925,5.881,24,7.2,24c1.32,0,2.396-1.075,2.396-2.404
	C9.596,20.277,8.521,19.203,7.2,19.203z M0,0v2.404h2.404l4.312,9.11L5.04,14.403c-0.118,0.359-0.243,0.833-0.243,1.191
	c0,1.33,1.084,2.406,2.403,2.406h14.396v-2.406H7.678c-0.117,0-0.232-0.113-0.232-0.232v-0.126L8.521,13.2h8.879
	c0.96,0,1.679-0.482,2.046-1.2l4.313-7.804C24,3.963,24,3.837,24,3.596c0-0.718-0.482-1.191-1.2-1.191H5.04L3.963,0H0z
	 M19.203,19.203c-1.319,0-2.404,1.074-2.404,2.393c0,1.329,1.085,2.404,2.404,2.404s2.393-1.075,2.393-2.404
	C21.596,20.277,20.522,19.203,19.203,19.203z"/>
</svg>
