<?xml version="1.0" encoding="utf-8"?>
<!-- Generator: Adobe Illustrator 16.0.0, SVG Export Plug-In . SVG Version: 6.00 Build 0)  -->
<!DOCTYPE svg PUBLIC "-//W3C//DTD SVG 1.1//EN" "http://www.w3.org/Graphics/SVG/1.1/DTD/svg11.dtd">
<svg version="1.1" id="Ebene_1" xmlns="http://www.w3.org/2000/svg" xmlns:xlink="http://www.w3.org/1999/xlink" x="0px" y="0px"
	 width="110px" height="110px" viewBox="5 5 110 110" enable-background="new 5 5 110 110" xml:space="preserve">
<g>
	<g>
		<path fill="#FFFFFF" d="M38.704,58.765l17.093,20.854l-7.753-20.854H38.704z M51.614,58.765l8.26,24.571l8.422-24.571H51.614z
			 M63.764,80.157l17.531-21.392h-9.424L63.764,80.157z M72.561,43.335H61.504l7.58,9.169L72.561,43.335z M67.795,55.267L60,45.839
			l-7.795,9.428H67.795z M58.497,43.335H47.432l3.433,9.231L58.497,43.335z M44.193,44.225L38.5,55.529h9.021L44.193,44.225z
			 M81.5,55.529l-5.699-11.312l-3.396,11.312H81.5z"/>
	</g>
</g>
</svg>
