<?xml version="1.0" encoding="utf-8"?>
<!-- Generator: Adobe Illustrator 16.0.0, SVG Export Plug-In . SVG Version: 6.00 Build 0)  -->
<!DOCTYPE svg PUBLIC "-//W3C//DTD SVG 1.1//EN" "http://www.w3.org/Graphics/SVG/1.1/DTD/svg11.dtd">
<svg version="1.1" id="Ebene_1" xmlns="http://www.w3.org/2000/svg" xmlns:xlink="http://www.w3.org/1999/xlink" x="0px" y="0px"
	 width="120px" height="120px" viewBox="0 0 120 120" enable-background="new 0 0 120 120" xml:space="preserve">
<path fill="#FFFFFF" d="M79.387,58.779c-0.063-0.562-0.719-0.984-1.286-0.984c-1.833,0-3.46-1.077-4.143-2.741
	c-0.697-1.704-0.248-3.692,1.119-4.945c0.43-0.394,0.481-1.051,0.121-1.509c-0.938-1.19-2.005-2.267-3.169-3.199
	c-0.456-0.366-1.125-0.314-1.521,0.123c-1.192,1.32-3.335,1.811-4.989,1.12c-1.723-0.725-2.81-2.47-2.703-4.342
	c0.035-0.589-0.395-1.101-0.981-1.169c-1.495-0.172-3.002-0.178-4.501-0.012c-0.58,0.064-1.01,0.563-0.991,1.145
	c0.065,1.854-1.033,3.568-2.739,4.268c-1.635,0.668-3.762,0.181-4.952-1.128c-0.394-0.431-1.052-0.483-1.51-0.127
	c-1.199,0.94-2.289,2.018-3.236,3.199c-0.37,0.459-0.315,1.125,0.119,1.521c1.393,1.26,1.842,3.266,1.118,4.99
	c-0.69,1.644-2.397,2.703-4.353,2.703c-0.635-0.021-1.086,0.405-1.155,0.981c-0.176,1.503-0.179,3.034-0.009,4.549
	c0.062,0.564,0.738,0.983,1.312,0.983c1.742-0.045,3.415,1.033,4.116,2.74c0.7,1.705,0.25,3.691-1.118,4.946
	c-0.428,0.393-0.482,1.05-0.122,1.507c0.93,1.184,1.996,2.261,3.165,3.201c0.459,0.369,1.126,0.316,1.522-0.121
	c1.197-1.323,3.339-1.813,4.988-1.121c1.727,0.722,2.812,2.467,2.706,4.341c-0.034,0.589,0.397,1.101,0.982,1.168
	C57.941,80.955,58.711,81,59.482,81c0.731,0,1.464-0.04,2.195-0.121c0.581-0.064,1.011-0.563,0.991-1.146
	c-0.067-1.854,1.034-3.568,2.737-4.266c1.646-0.672,3.765-0.18,4.954,1.127c0.396,0.431,1.05,0.482,1.511,0.127
	c1.196-0.938,2.284-2.015,3.236-3.199c0.369-0.458,0.317-1.125-0.12-1.521c-1.393-1.26-1.844-3.266-1.12-4.988
	c0.68-1.623,2.324-2.712,4.093-2.712l0.247,0.007c0.573,0.046,1.102-0.396,1.171-0.98C79.554,61.824,79.557,60.294,79.387,58.779z
	 M59.538,67.713c-3.68,0-6.673-2.991-6.673-6.671c0-3.678,2.993-6.671,6.673-6.671s6.673,2.993,6.673,6.671
	C66.211,64.722,63.218,67.713,59.538,67.713z"/>
</svg>
