<?xml version="1.0" encoding="utf-8"?>
<!-- Generator: Adobe Illustrator 16.0.0, SVG Export Plug-In . SVG Version: 6.00 Build 0)  -->
<!DOCTYPE svg PUBLIC "-//W3C//DTD SVG 1.1//EN" "http://www.w3.org/Graphics/SVG/1.1/DTD/svg11.dtd">
<svg version="1.1" id="Ebene_1" xmlns="http://www.w3.org/2000/svg" xmlns:xlink="http://www.w3.org/1999/xlink" x="0px" y="0px"
	 width="120px" height="120px" viewBox="0 0 120 120" enable-background="new 0 0 120 120" xml:space="preserve">
<path fill="#FFFFFF" d="M77.597,60.71c-1.513-1.968-0.913-4.306-1.381-6.423c-0.255-1.135-1.968-1.628-1.44-2.47
	c2.646-4.214-2.739-5.803-2.635-9.142c0.007-0.218-0.718-0.746-1.141-0.302c-1.776,1.862-4.459,1.71-6.4,3.154
	c-0.845,0.623-1.628,0.58-2.553,0.13c0.422-0.829,0.814-1.599,1.205-2.371c-1.508,1.189-3.5,1.123-4.118-0.041
	c-1.568-2.971-3.966-1.557-6.327-1.87c1.983,0.907,0.092,2.296,0.681,3.237c0.506,0.811,1.002,1.562-0.128,1.967
	c-0.91,0.332-0.69,2.348-2.684,1.29c-2.417-1.277-3.446-0.15-3.316,2.688c0.049,1.049-0.072,2.162-1.064,2.741
	c-0.451,0.269-0.746,0.34-0.549,0.97c0.613,1.982,0.203,2.784-1.676,3.152c-0.561,0.113-1.483,0.32-1.196,0.729
	c1.497,2.132-1.504,4.771,0.823,6.725c0.267,0.222,0.211,0.586,0.149,1.009c-0.565,3.859,0.729,5.615,4.481,6.285
	c0.809,0.146,1.6,0.417,2.773,0.726c-1.469,1.575-1.846,3.314-2.164,5.11c-0.311,1.74,0.412,2.475,1.922,1.904
	c2.277-0.856,4.383-0.097,6.565,0.257c0.821,0.135,1.662,1.224,1.762,1.089c1.657-2.207,4.116,0.405,5.967-1.18
	c0.888-0.758,2.448-0.82,3.687-0.179c1.475,0.762,1.626,0.189,1.104-1.096c-0.502-1.241-0.582-1.889,0.971-2.683
	c3.053-1.566,2.943-1.893,0.136-4.148c-0.651-0.515-1.423-0.901-1.984-1.509c-1.163-1.254-2.355-3.517-1.192-4.373
	c2.272-1.676,5.215-3.261,7.866-3.238C78.17,62.869,77.921,61.128,77.597,60.71z"/>
</svg>
