<?xml version="1.0" encoding="utf-8"?>
<!-- Generator: Adobe Illustrator 16.0.0, SVG Export Plug-In . SVG Version: 6.00 Build 0)  -->
<!DOCTYPE svg PUBLIC "-//W3C//DTD SVG 1.1//EN" "http://www.w3.org/Graphics/SVG/1.1/DTD/svg11.dtd">
<svg version="1.1" xmlns="http://www.w3.org/2000/svg" xmlns:xlink="http://www.w3.org/1999/xlink" x="0px" y="0px"
	 width="24px" height="24px" viewBox="0 0 24 24" enable-background="new 0 0 24 24" xml:space="preserve">
	<path fill="#818181" d="M23.413,20.576l-5.215-5.214c-0.027-0.027-0.06-0.047-0.088-0.073c1.024-1.556,1.624-3.418,1.624-5.422
		C19.734,4.418,15.317,0,9.867,0C4.418,0,0,4.418,0,9.867c0,5.45,4.417,9.867,9.867,9.867c2.003,0,3.866-0.6,5.422-1.625
		c0.025,0.029,0.045,0.062,0.073,0.089l5.214,5.215c0.783,0.782,2.054,0.782,2.837,0C24.195,22.63,24.195,21.359,23.413,20.576z
		 M9.867,16.313c-3.561,0-6.446-2.886-6.446-6.446S6.307,3.42,9.867,3.42s6.446,2.886,6.446,6.447S13.428,16.313,9.867,16.313z"/>
</svg>
