<?xml version="1.0" encoding="utf-8"?>
<!-- Generator: Adobe Illustrator 16.0.0, SVG Export Plug-In . SVG Version: 6.00 Build 0)  -->
<!DOCTYPE svg PUBLIC "-//W3C//DTD SVG 1.1//EN" "http://www.w3.org/Graphics/SVG/1.1/DTD/svg11.dtd">
<svg version="1.1" id="Ebene_1" xmlns="http://www.w3.org/2000/svg" xmlns:xlink="http://www.w3.org/1999/xlink" x="0px" y="0px"
	 width="40px" height="40px" viewBox="0 0 40 40" enable-background="new 0 0 40 40" xml:space="preserve">
<path fill="#FFFFFF" d="M20.002,23.599l-2.958-2.726l-8.456,7.638c0.307,0.308,0.722,0.49,1.18,0.49h20.467
	c0.456,0,0.869-0.183,1.173-0.49l-8.45-7.638L20.002,23.599z M31.416,11.49c-0.309-0.302-0.723-0.489-1.181-0.489H9.769
	c-0.457,0-0.871,0.19-1.178,0.492l11.411,10.306L31.416,11.49z M8,12.551v15.014l8.287-7.423L8,12.551z M23.713,20.144L32,27.565
	V12.549L23.713,20.144z"/>
</svg>
