<?xml version="1.0" encoding="utf-8"?>
<!-- Generator: Adobe Illustrator 16.0.0, SVG Export Plug-In . SVG Version: 6.00 Build 0)  -->
<!DOCTYPE svg PUBLIC "-//W3C//DTD SVG 1.1//EN" "http://www.w3.org/Graphics/SVG/1.1/DTD/svg11.dtd">
<svg version="1.1" id="Ebene_1" xmlns="http://www.w3.org/2000/svg" xmlns:xlink="http://www.w3.org/1999/xlink" x="0px" y="0px"
	 width="40px" height="40px" viewBox="0 0 40 40" enable-background="new 0 0 40 40" xml:space="preserve">
<path fill="#FFFFFF" d="M30.901,26.54l-0.109-0.335c-0.259-0.769-1.108-1.57-1.892-1.786l-2.891-0.79
	c-0.782-0.213-1.899,0.074-2.475,0.649l-1.045,1.046c-3.801-1.029-6.782-4.011-7.808-7.812l1.045-1.046
	c0.572-0.573,0.859-1.69,0.646-2.476L15.586,11.1c-0.212-0.783-1.018-1.633-1.787-1.891l-0.329-0.11
	c-0.771-0.258-1.871,0.002-2.444,0.578L9.46,11.243c-0.279,0.277-0.459,1.072-0.459,1.075c-0.053,4.97,1.896,9.757,5.409,13.274
	c3.504,3.505,8.273,5.451,13.226,5.408c0.026,0,0.845-0.175,1.124-0.454l1.566-1.566C30.899,28.409,31.157,27.309,30.901,26.54z"/>
</svg>
