<?xml version="1.0" encoding="utf-8"?>
<!-- Generator: Adobe Illustrator 16.0.0, SVG Export Plug-In . SVG Version: 6.00 Build 0)  -->
<!DOCTYPE svg PUBLIC "-//W3C//DTD SVG 1.1//EN" "http://www.w3.org/Graphics/SVG/1.1/DTD/svg11.dtd">
<svg version="1.1" id="Ebene_1" xmlns="http://www.w3.org/2000/svg" xmlns:xlink="http://www.w3.org/1999/xlink" x="0px" y="0px"
	 width="30px" height="30px" viewBox="0 0 30 30" enable-background="new 0 0 30 30" xml:space="preserve">
<path fill="#989898" d="M21.801,14.251c-0.021-0.19-0.246-0.333-0.439-0.333c-0.627,0-1.184-0.363-1.417-0.925
	c-0.239-0.575-0.085-1.246,0.383-1.669c0.146-0.133,0.164-0.354,0.041-0.509c-0.321-0.402-0.686-0.766-1.084-1.08
	c-0.156-0.124-0.385-0.106-0.521,0.041c-0.408,0.446-1.141,0.611-1.707,0.378c-0.589-0.244-0.961-0.833-0.924-1.465
	c0.012-0.198-0.136-0.371-0.336-0.395c-0.511-0.059-1.027-0.061-1.54-0.004c-0.199,0.021-0.346,0.19-0.339,0.387
	c0.022,0.625-0.354,1.204-0.938,1.439c-0.56,0.226-1.287,0.062-1.694-0.38c-0.134-0.146-0.359-0.163-0.516-0.043
	c-0.411,0.317-0.784,0.681-1.107,1.079c-0.126,0.155-0.108,0.38,0.041,0.514c0.476,0.426,0.63,1.102,0.383,1.684
	c-0.236,0.555-0.821,0.913-1.49,0.913c-0.217-0.007-0.371,0.137-0.395,0.331c-0.06,0.507-0.061,1.023-0.003,1.535
	c0.021,0.19,0.252,0.332,0.449,0.332c0.596-0.016,1.168,0.349,1.408,0.925c0.239,0.575,0.085,1.246-0.383,1.669
	c-0.146,0.133-0.165,0.354-0.042,0.509c0.318,0.399,0.683,0.763,1.083,1.08c0.157,0.125,0.385,0.107,0.521-0.04
	c0.41-0.447,1.143-0.612,1.707-0.379c0.591,0.244,0.962,0.832,0.926,1.465c-0.012,0.199,0.136,0.372,0.336,0.395
	c0.262,0.03,0.524,0.045,0.789,0.045c0.25,0,0.5-0.014,0.751-0.041c0.199-0.021,0.346-0.19,0.339-0.387
	c-0.023-0.625,0.354-1.204,0.937-1.439c0.563-0.227,1.287-0.061,1.694,0.381c0.136,0.145,0.359,0.162,0.517,0.042
	c0.41-0.316,0.782-0.68,1.107-1.079c0.126-0.154,0.108-0.38-0.041-0.514c-0.476-0.425-0.631-1.102-0.383-1.684
	c0.232-0.547,0.795-0.915,1.399-0.915l0.085,0.003c0.196,0.016,0.377-0.134,0.4-0.331C21.858,15.278,21.859,14.762,21.801,14.251z
	 M15.011,17.266c-1.259,0-2.283-1.01-2.283-2.251s1.024-2.251,2.283-2.251s2.283,1.01,2.283,2.251S16.27,17.266,15.011,17.266z"/>
</svg>
