<?xml version="1.0" encoding="utf-8"?>
<!-- Generator: Adobe Illustrator 16.0.0, SVG Export Plug-In . SVG Version: 6.00 Build 0)  -->
<!DOCTYPE svg PUBLIC "-//W3C//DTD SVG 1.1//EN" "http://www.w3.org/Graphics/SVG/1.1/DTD/svg11.dtd">
<svg version="1.1" id="Ebene_1" xmlns="http://www.w3.org/2000/svg" xmlns:xlink="http://www.w3.org/1999/xlink" x="0px" y="0px"
	 width="24px" height="24px" viewBox="0 0 24 24" enable-background="new 0 0 24 24" xml:space="preserve">
<g>
	<path fill="#818181" d="M15.394,12.57c-0.193,0-0.334,0.108-0.428,0.325c-0.094,0.215-0.141,0.575-0.141,1.077
		c0,0.52,0.047,0.885,0.141,1.096s0.234,0.319,0.428,0.319c0.203,0,0.351-0.108,0.442-0.319c0.093-0.211,0.139-0.576,0.139-1.096
		c0-0.502-0.05-0.862-0.144-1.077C15.734,12.679,15.589,12.57,15.394,12.57z"/>
	<path fill="#818181" d="M8.774,11.164c0.089-0.207,0.133-0.575,0.133-1.103c0-0.502-0.049-0.861-0.146-1.077
		C8.665,8.769,8.519,8.66,8.326,8.66c-0.194,0-0.338,0.108-0.43,0.324C7.804,9.2,7.757,9.559,7.757,10.061
		c0,0.52,0.047,0.885,0.139,1.097s0.236,0.317,0.43,0.317C8.537,11.475,8.687,11.372,8.774,11.164z"/>
	<path fill="#818181" d="M22.707,13.41L24,12l-1.293-1.41l0.882-1.695l-1.611-1.027L22.394,6l-1.828-0.575l-0.08-1.911l-1.912-0.083
		L18,1.608l-1.866,0.414l-1.027-1.613L13.41,1.292L12,0l-1.41,1.292L8.894,0.409L7.868,2.022L6,1.608L5.425,3.432L3.515,3.515
		L3.431,5.425L1.608,6l0.413,1.868L0.409,8.895l0.884,1.695L0,12l1.293,1.41l-0.884,1.696l1.612,1.028L1.608,18l1.823,0.575
		l0.083,1.91l1.911,0.08L6,22.394l1.868-0.416l1.026,1.613l1.696-0.883L12,24l1.41-1.292l1.696,0.883l1.027-1.613L18,22.394
		l0.573-1.828l1.912-0.08l0.08-1.91L22.394,18l-0.416-1.865l1.611-1.028L22.707,13.41z M6.475,12.194
		c-0.449-0.497-0.673-1.212-0.673-2.146c0-0.916,0.224-1.621,0.673-2.115c0.449-0.493,1.065-0.74,1.851-0.74
		c0.784,0,1.4,0.25,1.85,0.747c0.448,0.498,0.673,1.206,0.673,2.121c0,0.934-0.225,1.647-0.673,2.141
		c-0.45,0.494-1.066,0.74-1.85,0.74C7.541,12.941,6.924,12.693,6.475,12.194z M10.135,16.5H8.126l5.471-9h1.996L10.135,16.5z
		 M17.244,16.112c-0.44,0.494-1.058,0.74-1.851,0.74c-0.782,0-1.396-0.246-1.836-0.746c-0.44-0.499-0.661-1.213-0.661-2.148
		c0-0.915,0.22-1.62,0.661-2.114s1.054-0.74,1.836-0.74c0.793,0,1.41,0.247,1.851,0.74c0.438,0.494,0.661,1.204,0.661,2.128
		C17.905,14.906,17.683,15.62,17.244,16.112z"/>
</g>
</svg>
