<?xml version="1.0" encoding="utf-8"?>
<!-- Generator: Adobe Illustrator 16.0.0, SVG Export Plug-In . SVG Version: 6.00 Build 0)  -->
<!DOCTYPE svg PUBLIC "-//W3C//DTD SVG 1.1//EN" "http://www.w3.org/Graphics/SVG/1.1/DTD/svg11.dtd">
<svg version="1.1" id="Ebene_1" xmlns="http://www.w3.org/2000/svg" xmlns:xlink="http://www.w3.org/1999/xlink" x="0px" y="0px"
	 width="120px" height="120px" viewBox="0 0 120 120" enable-background="new 0 0 120 120" xml:space="preserve">
<g>
	<g>
		<path fill-rule="evenodd" clip-rule="evenodd" fill="#FFFFFF" d="M76.668,62.084l-1.785,1.039V81.77l16.078-9.319V53.801
			L76.668,62.084z M79.578,45.361l-6.184-3.594l-16.52,9.577l6.188,3.593L79.578,45.361z M89.91,51.345l-7.125-4.075L66.27,56.846
			l0.941,0.49l6.184,3.585l6.15-3.56L89.91,51.345z M65.021,63.703l-2.96-1.528v-4.747L55.965,53.9v18.517l15.959,9.253V63.155
			l-6.902-3.993V63.703z M48.965,48.725h-26.25c-0.966,0-1.75,0.778-1.75,1.738c0,0.961,0.784,1.739,1.75,1.739h26.25
			c0.967,0,1.75-0.778,1.75-1.739C50.715,49.503,49.932,48.725,48.965,48.725z M47.215,59.159h-15.75
			c-0.966,0-1.75,0.778-1.75,1.739s0.784,1.739,1.75,1.739h15.75c0.966,0,1.75-0.778,1.75-1.739S48.181,59.159,47.215,59.159z
			 M45.465,69.596h-10.5c-0.966,0-1.75,0.778-1.75,1.739c0,0.96,0.784,1.739,1.75,1.739h10.5c0.966,0,1.75-0.779,1.75-1.739
			C47.215,70.374,46.431,69.596,45.465,69.596z"/>
	</g>
</g>
</svg>
