<?xml version="1.0" encoding="utf-8"?>
<!-- Generator: Adobe Illustrator 16.0.0, SVG Export Plug-In . SVG Version: 6.00 Build 0)  -->
<!DOCTYPE svg PUBLIC "-//W3C//DTD SVG 1.1//EN" "http://www.w3.org/Graphics/SVG/1.1/DTD/svg11.dtd">
<svg version="1.1" id="Ebene_1" xmlns="http://www.w3.org/2000/svg" xmlns:xlink="http://www.w3.org/1999/xlink" x="0px" y="0px"
	 width="110px" height="110px" viewBox="0 0 110 110" enable-background="new 0 0 110 110" xml:space="preserve">
<g>
	<g>
		<path fill="#FFFFFF" d="M73.412,55.859l-1.65,0.96v17.248l14.87-8.618V48.198L73.412,55.859z M76.103,40.391l-5.718-3.324
			l-15.281,8.858l5.721,3.324L76.103,40.391z M85.66,45.926l-6.592-3.77l-15.275,8.857l0.871,0.453l5.721,3.317l5.688-3.293
			L85.66,45.926z M62.639,57.355l-2.737-1.411v-4.393l-5.637-3.262v17.126l14.758,8.562V56.85l-6.384-3.693V57.355L62.639,57.355z
			 M47.789,43.503h-24.28c-0.893,0-1.618,0.719-1.618,1.607c0,0.889,0.726,1.609,1.618,1.609h24.28c0.896,0,1.62-0.72,1.62-1.609
			C49.409,44.222,48.685,43.503,47.789,43.503z M46.171,53.154H31.603c-0.893,0-1.618,0.72-1.618,1.607
			c0,0.891,0.726,1.609,1.618,1.609h14.568c0.893,0,1.618-0.718,1.618-1.609C47.789,53.874,47.064,53.154,46.171,53.154z
			 M44.551,62.809H34.84c-0.894,0-1.618,0.719-1.618,1.606c0,0.89,0.725,1.61,1.618,1.61h9.711c0.895,0,1.62-0.721,1.62-1.61
			C46.171,63.527,45.446,62.809,44.551,62.809z"/>
	</g>
</g>
</svg>
