<?xml version="1.0" encoding="utf-8"?>
<!-- Generator: Adobe Illustrator 16.0.0, SVG Export Plug-In . SVG Version: 6.00 Build 0)  -->
<!DOCTYPE svg PUBLIC "-//W3C//DTD SVG 1.1//EN" "http://www.w3.org/Graphics/SVG/1.1/DTD/svg11.dtd">
<svg version="1.1" id="mt_Logo" xmlns="http://www.w3.org/2000/svg" xmlns:xlink="http://www.w3.org/1999/xlink" x="0px" y="0px"
	 width="236px" height="40px" viewBox="0 0 236 40" enable-background="new 0 0 236 40" xml:space="preserve">
<g>
	<g id="Slogan">
		<g>
			<path fill="#864EA2" d="M25.562,0.937h4.167v0.275c-1.401,0.062-2.102,0.815-2.102,2.261c0,0.184,0.036,0.606,0.108,1.268
				l2.767,20.509c0.096,0.698,0.212,1.219,0.35,1.562s0.317,0.576,0.539,0.698c0.221,0.123,0.548,0.202,0.979,0.239v0.257h-5.946
				v-0.257c0.778,0.024,1.167-0.367,1.167-1.176c0-0.196-0.036-0.558-0.108-1.085L24.79,5.604h-0.072l-9.413,22.401h-0.18
				L5.658,5.642H5.586L2.91,25.635c-0.048,0.22-0.072,0.57-0.072,1.047c0,0.307,0.072,0.561,0.215,0.763
				c0.144,0.202,0.473,0.303,0.988,0.303v0.257H0v-0.257c0.491-0.024,0.826-0.07,1.006-0.138s0.335-0.251,0.467-0.551
				s0.24-0.775,0.324-1.424L4.814,3.767l-0.395-0.9C3.928,1.764,3.096,1.212,1.922,1.212V0.937h4.994l9.305,22.144L25.562,0.937z"/>
			<path fill="#555555" d="M48.774,15.546H41.05l-4.005,10.236c-0.12,0.306-0.18,0.471-0.18,0.496
				c-0.155,0.318-0.233,0.606-0.233,0.864c0,0.404,0.293,0.606,0.88,0.606v0.257h-3.934v-0.257c0.707-0.012,1.222-0.214,1.545-0.606
				s0.646-1.004,0.97-1.838l9.592-24.771h0.449l9.449,23.926c0,0.098,0.036,0.202,0.108,0.312l0.144,0.404
				c0.299,0.76,0.644,1.378,1.033,1.856c0.389,0.478,0.943,0.717,1.662,0.717v0.257h-6.179v-0.257c0.347,0,0.575-0.08,0.683-0.239
				c0.107-0.159,0.162-0.306,0.162-0.441c0-0.343-0.138-0.833-0.413-1.47c-0.024-0.049-0.054-0.125-0.09-0.23
				c-0.036-0.104-0.066-0.168-0.09-0.193L48.774,15.546z M41.301,14.793h7.15l-3.575-9.225L41.301,14.793z"/>
			<path fill="#555555" d="M84.209,27.749v0.257h-10.67c-0.958,0-1.848-0.037-2.667-0.11c-0.821-0.073-1.764-0.272-2.83-0.597
				s-2.102-0.818-3.107-1.479c-2.084-1.335-3.746-3.038-4.985-5.108c-1.24-2.07-1.859-4.233-1.859-6.487
				c0-1.531,0.333-3.105,0.997-4.722c0.665-1.617,1.644-3.106,2.937-4.466s2.877-2.451,4.751-3.271
				c1.874-0.821,3.955-1.231,6.242-1.231c2.635,0,5.383,0.588,8.245,1.764l1.096,3.124h-0.251c-0.934-1.213-2.212-2.211-3.835-2.995
				c-1.623-0.784-3.386-1.176-5.291-1.176c-1.796,0-3.431,0.374-4.904,1.121c-1.473,0.748-2.707,1.764-3.7,3.05
				c-0.994,1.287-1.751,2.76-2.272,4.42c-0.521,1.66-0.782,3.372-0.782,5.136c0,2.855,0.557,5.136,1.671,6.846
				c1.114,1.709,2.347,2.956,3.7,3.739c1.186,0.687,2.512,1.146,3.979,1.378c1.467,0.233,2.644,0.349,3.53,0.349l1.419-0.037
				c1.065-0.024,1.841-0.083,2.326-0.174c0.485-0.092,0.82-0.297,1.006-0.616c0.186-0.318,0.278-0.833,0.278-1.543v-4.098
				c0-0.796-0.156-1.33-0.467-1.599c-0.312-0.27-0.779-0.392-1.401-0.368v-0.257h6.844v0.257c-0.827,0.012-1.354,0.189-1.581,0.533
				c-0.228,0.343-0.341,0.907-0.341,1.691v4.263c0,0.858,0.111,1.473,0.333,1.847c0.221,0.374,0.625,0.56,1.212,0.56H84.209z"/>
			<path fill="#555555" d="M93.137,0.937v0.275c-0.408-0.036-0.841,0.034-1.302,0.211c-0.461,0.178-0.692,0.585-0.692,1.222
				c-0.024,0.147-0.036,0.606-0.036,1.378v20.784c0,0.857,0.029,1.474,0.09,1.847c0.06,0.374,0.236,0.652,0.53,0.836
				c0.293,0.184,0.763,0.27,1.41,0.257v0.257h-7.06v-0.257c0.634-0.024,1.086-0.113,1.356-0.267c0.27-0.152,0.44-0.407,0.512-0.763
				c0.072-0.355,0.107-0.98,0.107-1.874V4.263c0-0.821-0.03-1.434-0.089-1.837c-0.061-0.405-0.234-0.717-0.521-0.938
				c-0.288-0.22-0.743-0.312-1.365-0.276V0.937H93.137z"/>
			<path fill="#555555" d="M118.591,2.297l0.988,2.867h-0.252c-0.539-0.551-1.207-1.115-2.004-1.691
				c-0.795-0.576-1.805-1.09-3.025-1.543c-1.223-0.454-2.562-0.68-4.023-0.68c-2.564,0-4.758,0.548-6.584,1.645
				c-1.826,1.097-3.197,2.502-4.113,4.218c-0.916,1.715-1.375,3.509-1.375,5.384c0,1.335,0.252,2.879,0.754,4.63
				c0.504,1.752,1.301,3.431,2.391,5.036c1.088,1.605,2.535,2.931,4.338,3.979c1.803,1.048,3.943,1.571,6.422,1.571
				c2,0,3.955-0.33,5.865-0.992c1.908-0.661,3.326-1.537,4.248-2.627l0.234,0.074l-1.852,2.903c-2.693,0.6-4.516,0.977-5.461,1.13
				c-0.945,0.152-2.264,0.229-3.951,0.229c-1.736,0-3.287-0.123-4.652-0.368c-1.365-0.245-2.527-0.579-3.486-1.001
				c-0.957-0.423-1.803-0.91-2.531-1.461c-1.463-1.103-2.629-2.591-3.504-4.465c-0.875-1.875-1.312-3.902-1.312-6.083
				c0-1.764,0.321-3.51,0.962-5.237s1.598-3.29,2.873-4.686s2.871-2.511,4.787-3.345c1.916-0.833,4.066-1.25,6.449-1.25
				c1.521,0,2.854,0.147,3.998,0.441c1.143,0.294,2.312,0.698,3.512,1.213c0.023,0,0.074,0.012,0.152,0.036
				C118.517,2.249,118.565,2.272,118.591,2.297z"/>
			<path fill="#864EA2" d="M155.704,0l-1.258,3.271h-0.252c0.047-0.159,0.072-0.422,0.072-0.79c0-0.306-0.105-0.493-0.314-0.561
				c-0.209-0.067-0.518-0.101-0.926-0.101h-6.916v23.173c0,0.527,0.023,0.971,0.072,1.333s0.137,0.649,0.27,0.864
				c0.131,0.214,0.324,0.361,0.574,0.441c0.252,0.08,0.641,0.119,1.168,0.119v0.257h-7.168v-0.257
				c0.6-0.061,1.033-0.147,1.303-0.257c0.27-0.11,0.459-0.315,0.566-0.616c0.107-0.3,0.162-0.799,0.162-1.498V1.819h-6.629
				c-0.658,0-1.094,0.037-1.303,0.11s-0.314,0.275-0.314,0.606c0,0.135,0.047,0.38,0.145,0.735h-0.252L133.446,0h0.252
				c0.227,0.441,0.461,0.716,0.701,0.827c0.203,0.073,0.633,0.11,1.293,0.11h17.586c0.707,0,1.207-0.042,1.5-0.128
				s0.518-0.355,0.674-0.809H155.704z"/>
			<path fill="#555555" d="M167.577,15.546h-7.725l-4.006,10.236c-0.119,0.306-0.18,0.471-0.18,0.496
				c-0.156,0.318-0.232,0.606-0.232,0.864c0,0.404,0.293,0.606,0.879,0.606v0.257h-3.934v-0.257
				c0.707-0.012,1.223-0.214,1.545-0.606c0.324-0.392,0.646-1.004,0.971-1.838l9.592-24.771h0.449l9.449,23.926
				c0,0.098,0.035,0.202,0.107,0.312l0.145,0.404c0.299,0.76,0.643,1.378,1.031,1.856c0.389,0.478,0.943,0.717,1.662,0.717v0.257
				h-6.18v-0.257c0.348,0,0.576-0.08,0.684-0.239s0.162-0.306,0.162-0.441c0-0.343-0.139-0.833-0.414-1.47
				c-0.023-0.049-0.055-0.125-0.09-0.23c-0.035-0.104-0.066-0.168-0.09-0.193L167.577,15.546z M160.104,14.793h7.148l-3.574-9.225
				L160.104,14.793z"/>
			<path fill="#555555" d="M201.726,2.297l0.988,2.867h-0.252c-0.539-0.551-1.207-1.115-2.002-1.691
				c-0.797-0.576-1.807-1.09-3.027-1.543c-1.223-0.454-2.562-0.68-4.023-0.68c-2.562,0-4.758,0.548-6.584,1.645
				c-1.826,1.097-3.197,2.502-4.113,4.218c-0.916,1.715-1.375,3.509-1.375,5.384c0,1.335,0.252,2.879,0.754,4.63
				c0.504,1.752,1.301,3.431,2.391,5.036s2.535,2.931,4.338,3.979c1.801,1.048,3.943,1.571,6.422,1.571c2,0,3.955-0.33,5.865-0.992
				c1.91-0.661,3.326-1.537,4.248-2.627l0.234,0.074l-1.852,2.903c-2.693,0.6-4.516,0.977-5.461,1.13
				c-0.945,0.152-2.264,0.229-3.951,0.229c-1.736,0-3.287-0.123-4.652-0.368c-1.365-0.245-2.527-0.579-3.486-1.001
				c-0.957-0.423-1.801-0.91-2.531-1.461c-1.463-1.103-2.629-2.591-3.504-4.465c-0.875-1.875-1.311-3.902-1.311-6.083
				c0-1.764,0.32-3.51,0.961-5.237s1.598-3.29,2.873-4.686s2.871-2.511,4.787-3.345c1.916-0.833,4.066-1.25,6.449-1.25
				c1.521,0,2.854,0.147,3.998,0.441c1.143,0.294,2.312,0.698,3.512,1.213c0.023,0,0.074,0.012,0.152,0.036
				C201.651,2.249,201.702,2.272,201.726,2.297z"/>
			<path fill="#555555" d="M206.935,0.937h7.582v0.275c-0.971-0.036-1.588,0.129-1.852,0.496c-0.264,0.368-0.395,1.079-0.395,2.132
				v10.382L227.987,2.15c0.312-0.245,0.469-0.447,0.469-0.606c0-0.22-0.354-0.331-1.061-0.331V0.937h5.713v0.275
				c-1.463,0.037-2.863,0.576-4.203,1.617l-13.689,10.457l13.652,10.622c0.049,0.025,0.107,0.062,0.18,0.11
				c0.6,0.441,1.191,0.87,1.779,1.286c1.113,0.76,1.877,1.271,2.289,1.535c0.414,0.263,0.852,0.481,1.312,0.652
				c0.461,0.172,0.984,0.257,1.57,0.257v0.257h-8.998v-0.257c0.371,0,0.664-0.015,0.879-0.046c0.217-0.03,0.324-0.107,0.324-0.23
				c0-0.184-0.33-0.52-0.988-1.01L212.271,14.83v10.052c0,0.809,0.035,1.403,0.107,1.782c0.072,0.38,0.268,0.668,0.584,0.864
				c0.316,0.196,0.824,0.27,1.518,0.221v0.257h-7.545v-0.257c0.719,0.037,1.236-0.034,1.555-0.211
				c0.316-0.177,0.518-0.444,0.602-0.799c0.084-0.355,0.125-0.937,0.125-1.746V3.988c0-0.846-0.047-1.455-0.143-1.829
				s-0.301-0.631-0.611-0.771c-0.312-0.141-0.82-0.199-1.527-0.175V0.937z"/>
		</g>
	</g>
	<g id="MagicTack">
		<path fill="#555555" d="M0.15,39.859v-8.278h6.671v0.977h-5.45v2.535h5.104v0.972H1.372v2.817h5.664v0.977H0.15z"/>
		<path fill="#555555" d="M9.574,39.859v-8.278h1.221v8.278H9.574z"/>
		<path fill="#555555" d="M13.579,39.859v-8.278h1.252l4.846,6.5v-6.5h1.17v8.278h-1.252l-4.845-6.505v6.505H13.579z"/>
		<path fill="#555555" d="M27.719,39.859v-8.278h3.461c0.705,0,1.27,0.084,1.696,0.251c0.426,0.167,0.76,0.425,1.001,0.773
			c0.241,0.349,0.362,0.712,0.362,1.093c0,0.354-0.107,0.687-0.321,1c-0.213,0.313-0.537,0.565-0.969,0.756
			c0.558,0.147,0.987,0.397,1.287,0.751c0.3,0.354,0.45,0.772,0.45,1.254c0,0.388-0.091,0.749-0.274,1.082
			c-0.182,0.333-0.408,0.59-0.676,0.771c-0.269,0.18-0.605,0.317-1.01,0.41c-0.405,0.092-0.901,0.138-1.488,0.138H27.719z
			 M28.94,35.059h1.995c0.542,0,0.929-0.032,1.165-0.096c0.31-0.083,0.544-0.22,0.702-0.412c0.157-0.192,0.236-0.433,0.236-0.723
			c0-0.275-0.073-0.517-0.22-0.726s-0.356-0.352-0.629-0.429s-0.741-0.116-1.403-0.116H28.94V35.059z M28.94,38.882h2.297
			c0.395,0,0.671-0.013,0.831-0.039c0.281-0.045,0.516-0.121,0.705-0.226c0.188-0.105,0.344-0.259,0.466-0.46
			c0.122-0.202,0.182-0.434,0.182-0.698c0-0.309-0.088-0.577-0.264-0.805c-0.176-0.228-0.42-0.388-0.733-0.48
			c-0.313-0.092-0.763-0.138-1.35-0.138H28.94V38.882z"/>
		<path fill="#555555" d="M35.997,39.859l3.543-8.278h1.315l3.776,8.278h-1.391l-1.077-2.507h-3.857l-1.013,2.507H35.997z
			 M38.659,36.459h3.127l-0.963-2.292c-0.293-0.697-0.512-1.269-0.654-1.717c-0.118,0.531-0.283,1.058-0.498,1.581L38.659,36.459z"
			/>
		<path fill="#555555" d="M46.239,39.859v-8.278h1.252l4.846,6.5v-6.5h1.17v8.278h-1.252l-4.846-6.505v6.505H46.239z"/>
		<path fill="#555555" d="M56.204,39.859v-8.278h3.178c0.717,0,1.265,0.04,1.642,0.119c0.529,0.109,0.979,0.307,1.353,0.593
			c0.487,0.369,0.851,0.841,1.092,1.415c0.241,0.574,0.362,1.23,0.362,1.968c0,0.629-0.082,1.186-0.246,1.671
			c-0.164,0.486-0.374,0.888-0.629,1.206c-0.256,0.318-0.536,0.568-0.84,0.751c-0.305,0.183-0.671,0.321-1.102,0.416
			c-0.43,0.094-0.924,0.141-1.482,0.141H56.204z M57.424,38.882h1.97c0.608,0,1.085-0.05,1.432-0.152
			c0.346-0.102,0.622-0.245,0.828-0.43c0.29-0.259,0.515-0.609,0.677-1.047s0.242-0.97,0.242-1.595c0-0.866-0.159-1.531-0.475-1.996
			c-0.317-0.465-0.702-0.776-1.155-0.935c-0.327-0.113-0.854-0.169-1.58-0.169h-1.938V38.882z"/>
		<path fill="#555555" d="M69.795,37.374v-1.021h3.48v1.021H69.795z"/>
		<path fill="#555555" d="M82.18,39.859l-3.575-8.278h1.322l2.397,6.014c0.193,0.482,0.355,0.934,0.485,1.355
			c0.143-0.452,0.308-0.903,0.497-1.355l2.492-6.014h1.246l-3.612,8.278H82.18z"/>
		<path fill="#555555" d="M88.991,39.859v-8.278h1.221v8.278H88.991z"/>
		<path fill="#555555" d="M93.034,39.859v-8.278h6.672v0.977h-5.451v2.535h5.103v0.972h-5.103v2.817h5.664v0.977H93.034z"/>
		<path fill="#555555" d="M102.2,39.859v-8.278h1.221v7.301h4.543v0.977H102.2z"/>
		<path fill="#555555" d="M110.089,39.859v-8.278h6.67v0.977h-5.449v2.535h5.104v0.972h-5.104v2.817h5.664v0.977H110.089z"/>
		<path fill="#555555" d="M123.491,39.859v-8.278h1.838l2.184,5.861c0.201,0.546,0.348,0.955,0.441,1.226
			c0.104-0.301,0.268-0.743,0.49-1.327l2.209-5.76h1.643v8.278h-1.178V32.93l-2.68,6.929h-1.102l-2.668-7.047v7.047H123.491z"/>
		<path fill="#555555" d="M134.538,35.827c0-1.374,0.412-2.449,1.234-3.227s1.883-1.167,3.184-1.167
			c0.852,0,1.619,0.183,2.305,0.548c0.684,0.365,1.205,0.874,1.562,1.527c0.359,0.653,0.539,1.394,0.539,2.222
			c0,0.839-0.189,1.59-0.566,2.253c-0.377,0.663-0.914,1.164-1.605,1.504C140.499,39.83,139.751,40,138.95,40
			c-0.869,0-1.645-0.188-2.328-0.564s-1.203-0.89-1.555-1.542C134.716,37.243,134.538,36.554,134.538,35.827z M135.798,35.844
			c0,0.998,0.299,1.783,0.896,2.357s1.348,0.861,2.25,0.861c0.918,0,1.674-0.29,2.268-0.87c0.594-0.579,0.891-1.402,0.891-2.467
			c0-0.674-0.127-1.262-0.381-1.765s-0.625-0.892-1.113-1.169c-0.488-0.276-1.037-0.415-1.645-0.415
			c-0.865,0-1.609,0.267-2.232,0.799C136.108,33.709,135.798,34.598,135.798,35.844z M137.163,31.072v-1.157h1.184v1.157H137.163z
			 M139.511,31.072v-1.157h1.184v1.157H139.511z"/>
		<path fill="#555555" d="M149.896,36.612v-0.972l3.908-0.005v3.072c-0.6,0.429-1.219,0.752-1.855,0.968
			C151.31,39.892,150.655,40,149.985,40c-0.906,0-1.73-0.174-2.471-0.522c-0.74-0.348-1.299-0.852-1.678-1.51
			c-0.377-0.659-0.566-1.395-0.566-2.208c0-0.806,0.188-1.557,0.564-2.256c0.375-0.698,0.914-1.217,1.619-1.556
			c0.705-0.338,1.518-0.508,2.436-0.508c0.668,0,1.271,0.097,1.811,0.291s0.961,0.464,1.268,0.81
			c0.307,0.347,0.539,0.798,0.699,1.355l-1.102,0.271c-0.139-0.421-0.311-0.753-0.516-0.994c-0.207-0.241-0.5-0.434-0.883-0.578
			c-0.381-0.146-0.805-0.218-1.271-0.218c-0.557,0-1.039,0.076-1.445,0.229c-0.408,0.153-0.736,0.353-0.986,0.602
			s-0.443,0.521-0.582,0.818c-0.234,0.512-0.352,1.067-0.352,1.667c0,0.738,0.141,1.355,0.424,1.852s0.695,0.866,1.236,1.107
			c0.541,0.241,1.117,0.361,1.725,0.361c0.529,0,1.045-0.091,1.549-0.274c0.502-0.183,0.885-0.377,1.145-0.584v-1.542H149.896z"/>
		<path fill="#555555" d="M156.198,39.859v-8.278h1.221v7.301h4.545v0.977H156.198z"/>
		<path fill="#555555" d="M164.269,39.859v-8.278h1.221v8.278H164.269z"/>
		<path fill="#555555" d="M174.87,36.957l1.221,0.277c-0.256,0.899-0.717,1.585-1.381,2.058c-0.666,0.473-1.479,0.708-2.439,0.708
			c-0.994,0-1.803-0.181-2.426-0.545c-0.623-0.363-1.098-0.889-1.422-1.578c-0.326-0.689-0.488-1.429-0.488-2.219
			c0-0.862,0.184-1.614,0.551-2.256c0.367-0.642,0.889-1.129,1.566-1.463c0.678-0.333,1.424-0.5,2.238-0.5
			c0.922,0,1.699,0.211,2.328,0.632c0.629,0.422,1.066,1.015,1.314,1.779l-1.201,0.254c-0.215-0.602-0.525-1.041-0.932-1.316
			c-0.406-0.274-0.918-0.412-1.535-0.412c-0.709,0-1.303,0.153-1.779,0.458c-0.475,0.305-0.811,0.714-1.002,1.228
			c-0.193,0.514-0.291,1.044-0.291,1.589c0,0.705,0.115,1.319,0.344,1.844c0.229,0.525,0.584,0.918,1.066,1.177
			c0.482,0.26,1.006,0.39,1.566,0.39c0.686,0,1.264-0.177,1.738-0.531C174.38,38.178,174.702,37.653,174.87,36.957z"/>
		<path fill="#555555" d="M178.276,39.859v-8.278h1.221v3.399h4.797v-3.399h1.221v8.278h-1.221v-3.902h-4.797v3.902H178.276z"/>
		<path fill="#555555" d="M188.142,39.859v-8.278h1.221v4.105l4.582-4.105h1.654l-3.871,3.354l4.041,4.924h-1.611l-3.285-4.19
			l-1.51,1.322v2.868H188.142z"/>
		<path fill="#555555" d="M197.458,39.859v-8.278h6.67v0.977h-5.449v2.535h5.104v0.972h-5.104v2.817h5.664v0.977H197.458z"/>
		<path fill="#555555" d="M206.882,39.859v-8.278h1.221v8.278H206.882z"/>
		<path fill="#555555" d="M213.245,39.859v-7.301h-3.039v-0.977h7.312v0.977h-3.051v7.301H213.245z"/>
		<path fill="#555555" d="M219.44,39.859v-8.278h6.672v0.977h-5.451v2.535h5.105v0.972h-5.105v2.817h5.664v0.977H219.44z"/>
		<path fill="#555555" d="M228.644,39.859v-8.278h1.254l4.846,6.5v-6.5h1.17v8.278h-1.252l-4.846-6.505v6.505H228.644z"/>
	</g>
</g>
</svg>
